<?xml version="1.0" encoding="UTF-8"?>
<svg width="400" height="300" viewBox="0 0 400 300" fill="none" xmlns="http://www.w3.org/2000/svg">
  <rect width="400" height="300" fill="#F3F4F6"/>
  <path d="M200 120C213.255 120 224 109.255 224 96C224 82.7452 213.255 72 200 72C186.745 72 176 82.7452 176 96C176 109.255 186.745 120 200 120Z" fill="#D1D5DB"/>
  <path d="M256 228H144C139.582 228 136 224.418 136 220V188C136 165.909 153.909 148 176 148H224C246.091 148 264 165.909 264 188V220C264 224.418 260.418 228 256 228Z" fill="#D1D5DB"/>
  <path d="M120 60H280M120 240H280" stroke="#D1D5DB" stroke-width="2" stroke-linecap="round"/>
  <text x="200" y="280" text-anchor="middle" font-family="Arial" font-size="14" fill="#6B7280">Image Not Available</text>
</svg> 